<?xml version="1.0" standalone="no"?>
<!DOCTYPE svg PUBLIC "-//W3C//DTD SVG 20010904//EN"
 "http://www.w3.org/TR/2001/REC-SVG-20010904/DTD/svg10.dtd">
<svg version="1.0" xmlns="http://www.w3.org/2000/svg"
 width="794.000000pt" height="800.000000pt" viewBox="0 0 794.000000 800.000000"
 preserveAspectRatio="xMidYMid meet">

<g transform="translate(0.000000,800.000000) scale(0.100000,-0.100000)"
fill="#000000" stroke="none">
<path d="M3690 7924 c-19 -2 -80 -9 -135 -14 -889 -93 -1773 -539 -2383 -1203
-590 -640 -931 -1382 -1039 -2257 -22 -178 -25 -682 -5 -855 80 -697 311
-1317 695 -1865 656 -937 1656 -1525 2792 -1641 155 -16 575 -16 730 0 1521
156 2793 1174 3292 2636 141 414 206 812 206 1275 0 445 -55 813 -184 1215
-114 357 -262 663 -475 985 -148 224 -293 401 -493 601 -619 619 -1356 982
-2241 1105 -109 15 -670 28 -760 18z m512 -54 c197 -14 355 -34 515 -66 1052
-211 1965 -861 2526 -1799 665 -1111 729 -2515 168 -3690 -372 -777 -990
-1409 -1757 -1793 -794 -398 -1727 -497 -2604 -277 -266 67 -484 149 -750 281
-385 192 -682 406 -991 714 -309 308 -534 619 -730 1008 -213 423 -344 872
-394 1354 -20 197 -20 612 0 801 88 808 400 1539 913 2139 645 754 1571 1237
2527 1317 267 23 369 25 577 11z"/>
<path d="M3719 7615 c-137 -50 -228 -181 -229 -327 0 -116 88 -252 197 -303
70 -33 183 -38 251 -10 24 10 44 16 47 14 2 -2 10 -40 19 -84 9 -44 18 -90 21
-102 5 -23 4 -23 -107 -23 -363 0 -766 -99 -1123 -275 -265 -130 -487 -285
-710 -496 l-100 -95 -40 14 c-22 8 -69 15 -105 15 -80 1 -140 -28 -183 -90
-39 -55 -39 -94 3 -221 32 -100 33 -105 17 -130 -197 -309 -340 -697 -398
-1077 -27 -178 -37 -509 -19 -668 35 -331 100 -587 220 -864 318 -732 927
-1286 1680 -1528 593 -190 1255 -165 1831 70 318 130 602 315 853 556 346 333
583 711 730 1167 91 284 129 534 129 852 0 221 -13 363 -53 562 -102 510 -359
1001 -719 1371 l-105 108 39 78 c21 43 35 83 31 89 -4 7 -33 -2 -80 -24 -41
-19 -84 -34 -96 -34 -12 0 -43 17 -69 39 -25 21 -95 72 -156 114 l-110 75 0
129 0 128 60 108 c33 59 65 107 72 107 7 0 13 -1 13 -2 1 -2 11 -81 23 -177
l23 -173 42 -25 43 -26 -5 24 c-6 26 -46 313 -46 329 0 5 19 10 43 10 56 0
126 36 154 79 74 111 39 213 -101 296 -33 19 -65 35 -71 35 -7 0 -67 -100
-135 -222 -68 -123 -129 -231 -135 -241 -10 -15 -17 -8 -48 56 -42 85 -75 130
-88 121 -5 -3 -26 -38 -45 -77 -28 -55 -137 -230 -175 -280 -3 -4 -37 4 -75
19 -162 62 -305 102 -481 133 -102 18 -117 24 -190 72 -43 29 -118 84 -166
122 l-88 71 45 45 c54 56 80 108 96 187 30 154 -57 322 -195 373 -65 24 -179
27 -236 6z m212 -82 c60 -31 112 -92 129 -151 64 -232 -140 -426 -341 -324
-94 47 -139 128 -139 247 1 190 187 311 351 228z m1812 -458 c40 -55 18 -138
-44 -171 -36 -18 -80 -18 -125 1 -40 17 -44 1 38 148 l49 87 31 -17 c16 -10
40 -31 51 -48z m-1623 -202 c36 -27 90 -66 120 -85 30 -19 95 -73 143 -119 49
-46 108 -96 131 -110 48 -30 123 -110 197 -209 28 -39 55 -70 59 -70 10 0 133
127 203 210 66 78 164 224 219 326 22 41 43 74 47 74 13 0 80 -145 97 -210 9
-36 17 -105 18 -155 1 -95 -25 -307 -49 -390 -8 -27 -10 -54 -6 -58 5 -5 42
-3 82 3 41 6 124 16 184 21 95 9 202 35 269 64 16 7 13 -4 -18 -61 -21 -38
-51 -85 -66 -104 -38 -49 -66 -106 -110 -229 -21 -58 -48 -132 -60 -164 -13
-31 -21 -59 -19 -61 28 -23 248 -138 292 -152 31 -10 57 -20 57 -24 0 -10 -59
-62 -144 -128 -67 -53 -196 -189 -196 -208 0 -4 13 -21 29 -39 15 -18 50 -70
77 -115 39 -66 61 -90 108 -123 l59 -40 -64 -32 c-35 -17 -93 -50 -128 -73
-35 -23 -69 -42 -75 -42 -6 1 -21 22 -33 48 -13 28 -35 55 -53 66 l-31 18 4
101 c2 56 12 139 22 184 17 72 18 89 6 144 -13 63 -41 130 -68 161 -8 9 -26
65 -39 125 -13 59 -36 145 -50 191 -18 62 -22 87 -14 101 25 47 3 113 -52 155
-18 13 -60 37 -93 53 -33 16 -80 42 -105 58 -118 76 -326 106 -490 71 -130
-27 -210 -75 -331 -195 -95 -94 -112 -117 -152 -201 -25 -52 -56 -133 -69
-180 -21 -79 -23 -104 -23 -360 1 -241 11 -397 31 -470 2 -10 -8 -23 -26 -34
-75 -44 -115 -168 -87 -266 21 -72 76 -127 137 -138 l43 -7 22 -80 c12 -44 34
-109 49 -145 43 -101 44 -93 -26 -118 -35 -12 -66 -22 -70 -22 -4 0 -4 47 -1
104 3 57 3 115 0 128 l-7 25 -161 -5 c-156 -5 -162 -4 -155 14 46 113 91 280
87 320 -1 7 -41 14 -108 17 -264 16 -280 18 -291 41 -9 20 6 39 149 181 87 87
159 163 159 169 0 6 -28 22 -62 35 -77 29 -127 60 -191 120 -53 49 -111 94
-221 167 -52 35 -65 49 -54 55 19 10 213 57 293 70 59 10 258 89 282 113 10 9
-1 28 -52 89 -36 43 -89 113 -117 155 -29 42 -81 114 -117 159 -61 75 -147
220 -137 230 3 3 36 0 75 -6 38 -6 157 -11 263 -12 106 0 233 -4 281 -7 65 -5
91 -4 99 5 15 19 -7 742 -24 769 -4 6 -12 40 -18 77 -5 36 -13 74 -17 84 -5
14 -4 16 8 7 8 -6 43 -33 79 -61z m-82 -155 c17 -23 38 -677 22 -691 -6 -5
-584 12 -667 19 -57 5 -63 4 -63 -13 0 -30 103 -208 157 -270 28 -32 78 -98
112 -148 34 -49 84 -118 112 -153 l51 -62 -77 -35 c-73 -34 -124 -49 -240 -74
-149 -33 -190 -43 -240 -62 -30 -11 -55 -26 -55 -32 0 -7 22 -24 48 -39 66
-37 245 -170 307 -228 28 -25 82 -62 120 -80 39 -19 72 -35 74 -37 3 -2 -19
-28 -48 -57 l-53 -54 -178 133 c-98 74 -181 139 -185 145 -9 14 -410 333 -520
414 -44 33 -99 76 -121 97 -57 51 -334 256 -447 330 -51 33 -93 64 -95 69 -5
12 190 190 310 282 384 297 870 494 1333 538 61 5 126 12 145 13 92 9 188 6
198 -5z m587 -73 c116 -30 320 -96 332 -109 7 -7 -14 -34 -102 -129 l-80 -85
-84 105 c-56 70 -105 120 -149 152 -37 25 -82 61 -102 79 l-35 32 45 -6 c25
-4 104 -21 175 -39z m980 -480 l30 -25 -40 0 c-22 0 -80 -7 -130 -15 -145 -24
-134 -30 -113 73 10 48 18 97 18 110 0 21 9 17 103 -48 56 -39 116 -82 132
-95z m-686 -159 c29 -8 56 -17 59 -20 3 -3 -44 -6 -104 -6 -94 0 -120 -4 -192
-29 -115 -40 -234 -118 -372 -243 -164 -149 -210 -226 -163 -273 26 -26 68
-11 148 50 256 201 307 238 365 267 85 42 194 56 326 41 85 -9 107 -16 192
-59 74 -38 98 -56 108 -79 14 -33 74 -262 74 -282 0 -8 -16 -5 -47 10 -39 18
-66 22 -143 22 -105 0 -159 -19 -227 -78 -100 -88 -134 -314 -66 -438 55 -101
150 -153 283 -153 93 0 139 15 225 74 l45 31 0 -103 c0 -111 -14 -343 -31
-528 -26 -277 -104 -421 -284 -528 -125 -74 -348 -109 -495 -78 -286 60 -430
272 -509 746 -71 424 -96 766 -72 980 13 120 60 269 112 356 42 71 166 199
239 247 57 38 146 72 228 87 64 12 235 4 301 -14z m1118 -266 c383 -473 591
-1032 610 -1640 9 -307 -22 -567 -103 -850 -117 -408 -348 -818 -624 -1103
l-95 -99 -42 159 -43 158 10 165 c6 91 15 226 19 300 20 289 -19 541 -112 735
-73 151 -116 216 -203 306 l-74 75 18 55 19 54 64 15 c93 22 92 21 64 95 l-24
65 37 1 c76 2 167 23 170 40 2 9 -22 33 -61 62 -102 75 -109 85 -101 146 6 48
10 53 48 73 22 11 61 35 86 51 24 17 78 46 120 64 41 18 76 37 78 42 2 5 -31
33 -73 61 -51 34 -85 66 -103 96 -43 69 -80 127 -96 149 -15 19 -12 25 35 82
27 34 79 84 115 112 97 75 198 171 188 180 -5 5 -41 18 -80 30 -72 21 -284
135 -284 152 0 4 11 32 23 61 13 29 36 91 52 138 32 98 57 151 92 199 l26 33
79 -78 c44 -44 118 -126 165 -184z m-992 195 c80 -20 200 -81 230 -117 24 -29
35 -91 17 -102 -4 -2 -52 18 -107 45 -68 34 -121 53 -165 59 -144 21 -282 5
-379 -44 -49 -25 -215 -146 -316 -232 -114 -96 -165 -117 -165 -68 0 44 36 89
158 201 147 134 261 209 387 254 66 23 255 25 340 4z m-3082 -49 c107 -44 404
-248 602 -414 44 -37 105 -85 135 -107 86 -62 439 -343 500 -399 30 -27 116
-94 190 -149 74 -55 145 -109 157 -120 l23 -20 -77 -72 -77 -71 -46 70 c-26
39 -62 87 -81 107 -25 27 -34 46 -35 73 -1 50 -32 80 -118 110 -74 27 -369 96
-409 96 -26 0 -63 43 -73 86 -4 18 -48 70 -118 139 -61 61 -197 199 -303 308
-174 179 -213 214 -213 188 0 -9 477 -509 533 -558 20 -18 37 -34 37 -36 0 -2
-26 -7 -57 -10 -173 -16 -346 -159 -371 -309 l-7 -43 -45 73 c-25 40 -67 107
-94 150 -73 115 -280 537 -321 653 -38 110 -42 146 -21 187 46 90 167 118 289
68z m-131 -633 c123 -242 288 -520 352 -591 34 -39 95 -64 155 -66 51 -1 58
-4 91 -40 40 -44 45 -54 54 -117 l7 -46 -43 -19 c-23 -10 -62 -36 -85 -56 -24
-20 -67 -53 -97 -73 -79 -52 -123 -106 -172 -209 -24 -50 -59 -111 -79 -135
-63 -79 -82 -163 -90 -412 -7 -206 -6 -219 14 -281 12 -36 37 -92 57 -123 19
-32 43 -77 53 -99 10 -23 34 -61 53 -86 32 -43 34 -49 30 -106 -7 -98 40 -169
130 -196 21 -6 37 -14 36 -18 -5 -12 -342 -330 -350 -330 -11 0 -114 132 -185
239 -232 347 -381 749 -439 1186 -25 193 -23 516 5 705 57 382 157 675 339
997 26 46 50 83 53 83 3 0 53 -93 111 -207z m3428 111 c29 -9 64 -23 78 -32
42 -28 92 -104 114 -175 18 -62 19 -76 9 -139 -20 -121 -63 -177 -169 -225
-68 -30 -196 -32 -258 -4 -128 58 -180 168 -155 330 19 124 70 192 177 236 69
29 129 31 204 9z m-2637 -326 c43 -45 41 -50 -24 -62 -46 -8 -149 -74 -172
-109 -10 -15 -22 -27 -27 -27 -10 0 -105 129 -99 134 56 42 87 59 149 80 106
36 125 34 173 -16z m267 -109 c169 -36 293 -75 313 -98 8 -9 18 -27 22 -40 6
-21 5 -23 -14 -18 -30 7 -26 -8 8 -32 42 -30 126 -141 171 -224 64 -119 93
-232 94 -367 1 -122 -10 -164 -42 -158 -19 3 -31 41 -81 242 -48 195 -112 312
-207 374 -58 39 -68 40 -60 5 4 -16 10 -82 13 -148 5 -113 4 -122 -17 -147
-27 -36 -68 -37 -108 -3 -25 21 -30 34 -36 89 -6 62 -41 165 -51 154 -3 -3 1
-34 10 -69 26 -114 17 -215 -23 -245 -28 -22 -77 -17 -110 11 -36 31 -74 116
-70 158 l3 32 35 -49 c40 -55 56 -40 20 19 -20 33 -147 155 -161 155 -4 0 -1
-28 6 -62 24 -116 36 -242 42 -428 4 -179 4 -186 -19 -230 -27 -53 -63 -66
-77 -28 -4 13 -11 131 -14 263 -3 132 -10 269 -16 305 -6 36 -14 80 -17 98 -3
20 -22 52 -44 76 -49 53 -60 82 -60 160 0 57 4 68 35 109 57 75 160 125 260
126 27 1 115 -13 195 -30z m-565 -53 l47 -64 2 -91 1 -91 -37 0 c-55 0 -116
28 -133 61 -19 36 -19 100 0 146 14 34 61 103 70 103 2 0 25 -29 50 -64z
m3179 -250 c31 -40 35 -159 8 -212 -21 -41 -58 -81 -68 -72 -3 3 -1 49 5 102
6 52 11 123 11 156 0 68 9 73 44 26z m-2343 -57 c26 -18 109 -128 109 -144 0
-3 -10 1 -22 9 -13 8 -41 20 -64 26 -40 12 -41 13 -50 71 -6 32 -8 59 -6 59 2
0 17 -9 33 -21z m879 9 c1 -2 14 -79 29 -173 16 -93 27 -172 25 -174 -2 -2
-22 1 -44 8 -58 17 -93 67 -98 142 -6 81 3 118 39 162 25 31 48 46 49 35z
m-1370 -120 c0 -18 -15 -25 -23 -10 -2 4 -7 20 -11 37 -7 29 -7 29 13 11 12
-11 21 -27 21 -38z m578 -62 c28 -14 52 -27 52 -29 0 -1 16 -64 35 -140 19
-77 35 -148 35 -159 0 -24 -16 -22 -106 16 -93 39 -194 51 -311 36 -87 -11
-210 -37 -254 -55 -13 -5 -17 14 -28 142 -7 81 -15 160 -18 176 -3 15 -1 27 5
27 6 0 13 -18 17 -39 9 -52 56 -126 97 -151 51 -31 94 -26 134 14 19 19 34 41
34 50 0 20 3 20 42 -4 46 -28 82 -25 118 8 25 23 31 37 36 88 7 61 7 62 33 54
14 -4 50 -19 79 -34z m425 8 c121 -7 137 -11 137 -32 0 -9 -23 -82 -50 -162
-27 -79 -46 -148 -41 -153 5 -5 79 -7 164 -5 l156 3 6 -24 c5 -19 -2 -199 -9
-231 -3 -16 52 -7 117 18 l75 29 48 -64 c26 -36 68 -82 94 -102 47 -37 47 -38
32 -67 -8 -16 -53 -106 -98 -201 l-82 -172 78 -113 c43 -62 90 -124 104 -137
14 -14 26 -32 26 -41 0 -8 -34 -84 -75 -169 l-75 -153 35 -164 c20 -90 44
-192 54 -226 11 -35 38 -139 61 -233 38 -157 92 -305 111 -305 8 0 -7 58 -35
138 -8 22 -33 116 -56 209 -22 92 -47 189 -56 214 -8 26 -30 118 -48 205 l-34
159 60 120 c33 66 69 142 80 169 l19 49 -39 41 c-22 23 -70 85 -107 139 l-68
98 38 82 c36 77 145 299 149 304 2 2 26 -7 55 -19 l53 -23 -6 -65 c-12 -131
-26 -563 -29 -845 -2 -299 13 -615 39 -790 25 -174 42 -330 38 -335 -3 -2 -43
14 -88 38 l-83 42 -36 128 c-19 70 -42 168 -51 217 -40 218 -78 480 -87 600
-5 72 -16 180 -24 240 -7 61 -17 142 -20 180 -3 39 -15 124 -27 190 -11 66
-23 197 -27 290 -4 100 -12 178 -19 190 -9 17 -11 7 -12 -57 0 -43 -2 -78 -4
-78 -7 0 -154 137 -262 245 -94 93 -113 116 -119 150 -11 64 -94 203 -166 280
-59 62 -68 77 -79 130 -7 33 -15 66 -18 74 -4 12 4 13 52 7 31 -3 98 -9 149
-12z m1987 -104 c23 -12 23 -13 5 -20 -11 -4 -55 -11 -97 -15 -89 -8 -91 -10
-59 -95 l19 -51 -21 -8 c-12 -4 -37 -11 -56 -15 l-34 -6 7 37 c3 21 9 68 12
105 6 64 9 69 41 88 19 11 41 33 51 49 l17 30 45 -43 c26 -24 57 -49 70 -56z
m-3157 -7 c4 -38 7 -129 7 -203 l0 -136 -28 -16 c-45 -27 -138 -126 -182 -193
-49 -76 -96 -216 -117 -350 -17 -113 -12 -315 10 -401 13 -49 13 -52 -13 -83
l-27 -32 -42 64 c-22 35 -41 67 -41 72 0 5 -18 38 -39 74 -75 125 -81 160 -74
398 7 241 25 327 86 398 19 22 50 75 70 117 51 111 89 161 154 203 32 21 81
57 108 80 45 38 101 74 116 75 3 0 9 -30 12 -67z m1060 -126 c77 -94 142 -224
162 -326 l7 -34 -26 19 c-14 11 -41 46 -58 78 -18 33 -55 82 -82 110 l-50 51
-1 72 c0 40 3 73 6 73 4 0 22 -19 42 -43z m-333 -101 c94 -35 93 -32 43 -133
-35 -71 -44 -104 -48 -159 -6 -77 0 -70 35 41 36 117 86 205 117 205 20 0 16
-14 -17 -67 -35 -54 -71 -163 -74 -221 -1 -22 -9 -50 -18 -64 -32 -49 -53
-131 -53 -208 1 -89 24 -143 89 -205 23 -22 56 -60 73 -85 41 -61 115 -127
166 -151 52 -23 81 -25 53 -4 -14 11 -16 15 -5 15 8 0 24 3 37 6 21 6 22 4 22
-50 0 -47 -3 -56 -17 -56 -36 0 -120 49 -180 105 -77 69 -84 54 -9 -19 59 -58
144 -106 187 -106 l28 0 3 -95 c2 -52 2 -126 0 -164 -3 -62 -7 -74 -37 -108
l-33 -38 -34 37 c-19 20 -46 40 -60 43 -33 8 -93 -17 -108 -45 l-12 -22 -26
25 c-15 13 -35 27 -45 30 -32 12 -82 -19 -122 -73 -38 -52 -38 -52 -51 -29
-18 32 -17 39 3 39 18 0 53 28 53 42 0 5 -10 2 -22 -6 -36 -25 -56 -19 -78 23
-18 36 -18 43 -5 93 7 29 17 61 20 71 4 9 3 17 -4 17 -5 0 -18 -22 -28 -50
-10 -27 -20 -50 -23 -50 -3 0 -16 19 -28 43 -11 23 -29 54 -39 69 -17 27 -17
28 9 55 29 30 58 91 58 120 -1 10 -14 -7 -29 -37 -32 -61 -64 -95 -81 -85 -7
4 -1 17 18 36 46 47 89 198 72 258 -6 21 -9 11 -20 -49 -22 -134 -72 -232
-102 -202 -8 8 -3 19 18 41 37 40 53 88 60 181 3 41 15 104 26 139 39 122 20
250 -51 340 -17 21 -31 44 -31 50 0 28 -52 110 -93 148 -53 49 -89 69 -140 78
-28 6 -37 11 -33 22 3 8 6 17 6 19 0 2 10 4 22 4 38 0 105 -39 153 -91 51 -54
66 -58 41 -12 -31 61 -132 133 -186 133 -18 0 -20 6 -20 56 0 53 1 56 34 69
18 8 76 23 127 35 116 25 316 23 389 -4z m322 -83 c47 -50 81 -106 103 -173
16 -46 20 -51 24 -32 l6 24 22 -24 c29 -30 100 -184 118 -256 32 -122 27 -547
-6 -568 -5 -3 -9 6 -9 20 0 13 -5 37 -10 52 -8 21 -7 35 5 61 9 19 15 44 12
56 -3 20 -4 20 -16 -8 -6 -16 -14 -36 -17 -44 -3 -10 -8 -11 -15 -4 -6 6 -2
26 13 59 22 51 40 224 22 224 -5 0 -10 -32 -12 -71 -3 -70 -35 -179 -53 -179
-12 0 -12 1 6 44 9 21 17 70 19 111 2 40 10 83 16 96 9 15 11 53 8 114 -6 116
-35 185 -102 241 -25 21 -46 45 -46 52 0 30 -63 141 -101 178 -36 35 -50 64
-31 64 4 0 24 -17 44 -37z m-33 -47 c29 -27 73 -101 85 -143 7 -21 5 -21 -31
-11 -70 19 -160 2 -254 -49 -7 -4 14 99 26 132 5 11 19 38 31 60 22 38 26 40
69 40 35 -1 51 -7 74 -29z m-1009 -51 c0 -14 -15 -44 -33 -68 -67 -88 -98
-196 -86 -296 12 -95 29 -85 29 17 0 102 14 156 62 234 21 34 34 46 41 39 7
-7 6 -16 -5 -28 -44 -50 -62 -107 -66 -203 -1 -52 -8 -121 -14 -154 -18 -90 1
-176 64 -294 56 -105 156 -220 219 -253 40 -20 59 -59 30 -59 -30 0 -134 57
-176 97 -22 21 -57 58 -78 82 -44 52 -50 32 -8 -26 56 -78 175 -159 258 -177
26 -6 39 -20 71 -74 21 -37 85 -145 141 -240 55 -94 101 -174 101 -177 0 -3
-32 -5 -70 -5 -122 0 -253 35 -393 107 -49 24 -197 161 -197 181 0 6 14 18 30
27 46 24 36 35 -17 19 -153 -46 -275 43 -248 182 4 25 22 52 55 85 27 27 54
49 60 49 5 0 10 5 10 11 0 7 -11 8 -29 4 -34 -7 -30 -19 -51 150 -26 195 22
451 112 604 33 56 159 191 178 191 5 0 10 -11 10 -25z m2928 -40 c100 -109
198 -282 246 -433 31 -99 56 -279 56 -405 0 -172 -22 -501 -51 -777 -39 -362
-32 -334 -93 -382 -59 -47 -203 -145 -277 -189 l-51 -30 6 128 c4 70 11 173
16 228 5 55 17 181 25 280 9 99 25 252 36 340 10 88 24 235 31 327 11 149 9
192 -7 177 -5 -6 -22 -124 -30 -221 l-7 -68 -69 105 c-38 58 -69 109 -69 114
0 5 33 60 74 121 l74 113 -36 66 c-49 90 -136 229 -167 266 -45 54 -27 4 34
-96 32 -53 75 -128 96 -166 l38 -71 -51 -73 c-28 -41 -62 -94 -75 -118 l-25
-44 59 -91 c33 -50 72 -114 86 -143 l27 -52 -18 -163 c-9 -90 -21 -199 -26
-243 -5 -44 -17 -178 -27 -297 -9 -120 -18 -216 -20 -214 -2 1 -20 54 -42 117
-40 117 -92 349 -111 499 -56 443 -61 499 -67 821 l-6 327 46 20 c108 48 227
151 277 240 13 23 29 42 36 42 7 0 35 -25 62 -55z m-2717 -45 c42 -12 118 -76
148 -124 12 -18 21 -36 21 -39 0 -3 -19 2 -42 13 -75 32 -130 35 -209 10 -68
-22 -108 -50 -142 -99 -9 -14 -19 -22 -22 -19 -12 12 17 145 41 186 21 36 30
42 58 42 20 0 40 8 51 20 20 22 43 25 96 10z m1223 -156 l173 -165 6 -102 c4
-56 13 -140 21 -186 17 -93 59 -456 76 -656 6 -71 20 -179 31 -240 10 -60 26
-159 35 -219 8 -59 33 -176 54 -259 21 -84 38 -152 37 -153 -1 -1 -63 31 -137
72 -74 41 -145 74 -157 74 -16 0 -278 127 -302 146 -2 2 24 34 59 71 35 37 74
91 87 121 23 49 24 56 12 89 -20 51 -57 75 -117 76 l-51 1 5 45 c3 25 17 111
30 190 13 80 24 186 24 238 0 79 3 95 19 109 84 70 99 90 110 145 16 76 1 135
-45 180 -33 32 -34 36 -34 108 -1 109 -22 213 -65 316 -20 50 -41 94 -46 100
-10 10 -13 65 -3 65 3 0 83 -75 178 -166z m-396 103 c6 -7 7 -18 2 -26 -4 -8
-6 -21 -3 -28 5 -12 7 -12 15 -1 7 10 11 10 15 1 2 -7 9 -13 14 -13 5 0 2 14
-6 31 -9 17 -15 33 -13 35 3 2 28 -8 57 -22 48 -25 52 -28 46 -55 -4 -18 -2
-29 4 -29 6 0 11 7 11 16 0 8 5 12 11 8 23 -14 48 -91 54 -170 6 -70 4 -87
-15 -132 -12 -29 -24 -52 -27 -52 -9 0 -52 56 -53 68 0 6 -4 12 -10 12 -19 0
-10 -29 20 -63 28 -32 29 -35 12 -49 -23 -21 -78 -48 -95 -48 -17 0 -54 39
-60 65 -4 17 -5 16 -6 -4 0 -14 7 -33 16 -43 15 -17 15 -20 3 -28 -30 -19
-100 -7 -100 17 0 8 10 23 23 33 12 10 18 22 13 27 -5 4 -11 2 -13 -4 -6 -18
-33 -16 -33 2 0 8 -5 15 -11 15 -7 0 -8 -14 -4 -40 4 -22 4 -40 0 -40 -15 0
-82 40 -101 62 -54 61 -69 100 -68 181 1 68 5 86 35 144 51 100 139 152 139
82 0 -11 5 -19 11 -19 8 0 10 12 6 34 -4 27 -2 36 11 39 36 10 90 6 100 -6z
m-742 -117 c25 -10 26 -14 21 -58 -5 -43 -4 -45 10 -27 14 20 14 20 29 1 7
-11 16 -17 19 -14 3 3 -4 17 -16 32 -40 51 -13 52 38 1 60 -59 93 -139 93
-220 0 -60 -32 -168 -58 -201 -26 -31 -103 -84 -114 -78 -5 3 -8 21 -6 39 1
19 -1 37 -5 41 -4 4 -7 -15 -7 -43 0 -50 0 -50 -36 -56 -20 -3 -49 -4 -64 0
-24 4 -29 11 -32 37 -2 17 3 41 11 54 17 28 6 43 -13 17 -12 -17 -13 -17 -21
6 -5 19 -8 20 -12 7 -2 -9 3 -33 12 -54 31 -76 -25 -63 -106 23 -59 62 -83
132 -83 233 1 111 48 184 74 115 12 -31 24 -33 14 -3 -6 21 -5 22 11 8 16 -13
18 -13 13 0 -2 8 -17 21 -31 28 -34 16 -34 22 1 54 58 54 92 57 107 7 4 -10
11 -19 16 -19 5 0 3 15 -5 34 -8 19 -12 37 -8 40 9 10 119 7 148 -4z m2187
-377 c6 -337 11 -405 68 -823 21 -162 69 -366 124 -532 54 -164 64 -223 46
-270 -6 -16 -38 -38 -104 -70 -115 -57 -269 -118 -297 -118 -11 0 -60 20 -108
44 l-88 44 -23 179 c-13 98 -27 205 -31 238 -5 33 -14 172 -21 309 -10 202
-10 338 0 735 7 267 16 509 20 536 6 49 7 50 36 45 50 -8 267 -3 310 8 22 5
45 10 51 11 8 1 13 -102 17 -336z m-1259 -10 c-9 -60 -25 -94 -51 -104 -13 -5
-31 -25 -39 -44 -14 -34 -16 -35 -71 -35 l-57 0 -64 66 c-35 36 -62 67 -60 69
2 3 22 0 44 -6 57 -16 145 -4 212 30 32 16 64 36 71 45 19 23 20 21 15 -21z
m181 -73 c31 -60 11 -185 -33 -209 -12 -6 -22 -11 -25 -11 -2 0 2 28 9 62 7
35 14 91 15 125 1 35 6 63 10 63 5 0 15 -13 24 -30z m-956 -106 c-17 -89 -29
-120 -58 -148 -24 -23 -32 -26 -49 -17 -25 14 -65 14 -78 2 -15 -16 -69 16
-130 78 -79 79 -86 96 -26 63 39 -22 60 -27 122 -27 64 0 82 4 127 29 29 16
60 37 69 47 27 29 32 23 23 -27z m775 17 c42 -43 58 -110 63 -261 4 -117 1
-153 -22 -275 -29 -155 -46 -407 -27 -419 7 -4 13 21 18 74 7 87 17 99 72 85
74 -18 97 -67 62 -134 -27 -54 -149 -183 -167 -177 -7 3 -13 1 -13 -5 0 -9 79
-64 103 -72 6 -2 -8 -20 -30 -41 -23 -21 -52 -59 -64 -86 l-21 -48 -92 48
c-69 36 -114 51 -186 64 -149 28 -181 61 -253 267 -50 140 -82 206 -162 338
-126 208 -225 391 -225 414 0 37 15 41 56 17 57 -36 130 -143 220 -325 86
-171 123 -225 156 -225 27 0 41 36 33 86 -9 60 -25 56 -25 -6 0 -27 -4 -50 -9
-50 -5 0 -21 14 -35 31 -26 30 -26 31 -9 61 27 45 88 108 105 108 31 0 68 -43
113 -133 78 -154 111 -174 44 -27 -40 90 -41 94 -26 125 18 37 62 54 96 36 11
-6 38 -42 61 -79 22 -37 56 -83 75 -102 35 -34 44 -35 24 -1 -9 14 -9 26 1 52
18 46 25 403 11 554 -6 65 -8 122 -5 126 10 16 30 9 58 -20z m-1280 -605 c71
-68 120 -99 221 -141 107 -45 201 -65 318 -70 49 -2 91 -5 93 -8 3 -3 30 -72
60 -153 63 -173 107 -244 168 -274 l43 -20 6 -113 c4 -61 7 -161 7 -221 l0
-108 -37 7 c-21 3 -69 16 -106 27 -61 18 -68 23 -63 42 43 160 77 386 58 386
-11 0 -26 -60 -42 -165 -16 -102 -51 -225 -65 -225 -35 0 -314 125 -440 197
-150 86 -365 237 -365 256 0 6 40 55 88 111 109 124 135 161 130 176 -3 11
-130 -121 -207 -217 -19 -24 -39 -43 -46 -43 -14 0 -218 193 -268 253 l-37 46
57 53 c47 44 134 127 308 296 20 19 20 19 45 -12 13 -17 47 -53 74 -80z m1196
-6 l-12 -52 -19 28 c-18 28 -18 29 8 56 15 15 29 26 31 23 2 -2 -1 -27 -8 -55z
m2118 -327 l32 -118 -52 -49 c-29 -27 -54 -44 -56 -38 -1 5 4 63 13 128 8 65
15 135 15 156 0 21 3 38 8 38 4 0 22 -53 40 -117z m-1820 -310 c37 -20 69 -38
71 -39 2 -2 -10 -14 -25 -28 -16 -13 -47 -54 -68 -90 l-39 -66 -36 22 c-112
68 -112 68 -105 91 14 50 57 108 92 127 20 10 39 19 40 20 2 0 34 -17 70 -37z
m-429 -53 c20 -5 108 -52 196 -105 l159 -95 -3 -83 -3 -83 112 -52 c61 -29
115 -52 121 -52 5 0 9 -4 9 -10 0 -6 -65 -8 -177 -5 -165 4 -291 16 -455 45
l-66 12 -6 81 c-3 45 -8 148 -11 228 l-6 147 47 -9 c25 -5 62 -13 83 -19z
m736 -91 c88 -49 240 -129 338 -177 97 -48 177 -90 177 -93 0 -17 -282 -81
-457 -104 l-112 -15 -127 55 c-183 79 -178 74 -171 151 8 105 81 229 152 260
16 7 32 13 35 13 3 0 77 -40 165 -90z"/>
<path d="M5036 5509 c-54 -13 -101 -44 -125 -83 -33 -53 -25 -54 27 -4 26 26
60 52 75 57 35 13 111 14 155 2 46 -14 40 4 -8 23 -45 18 -66 18 -124 5z"/>
<path d="M4480 5491 c0 -4 24 -11 54 -14 63 -6 103 -25 157 -74 45 -40 52 -30
12 18 -36 43 -116 79 -175 79 -27 0 -48 -4 -48 -9z"/>
<path d="M4315 5396 c-94 -44 -130 -79 -172 -162 -37 -75 -38 -81 -38 -183 0
-140 22 -198 106 -275 76 -71 132 -90 243 -84 101 6 179 35 240 90 63 54 85
102 98 207 12 110 -5 190 -59 269 -94 138 -285 201 -418 138z m248 -39 c78
-36 139 -95 172 -169 26 -57 27 -68 23 -168 -4 -94 -8 -113 -31 -153 -73 -125
-294 -186 -426 -118 -115 59 -178 180 -169 325 5 73 39 169 76 209 26 29 101
79 142 94 51 19 147 10 213 -20z"/>
<path d="M4576 5038 c-22 -25 -20 -41 8 -54 32 -15 68 11 60 43 -8 28 -48 35
-68 11z"/>
<path d="M4894 4655 c0 -139 -2 -165 -19 -200 -17 -33 -25 -40 -50 -40 -26 0
-32 5 -43 40 -8 22 -16 79 -19 128 -3 48 -9 90 -14 93 -26 16 -22 -177 5 -241
35 -82 107 -80 148 3 19 41 22 63 22 177 1 98 -3 139 -15 165 -15 34 -16 29
-15 -125z"/>
<path d="M4972 4698 c57 -86 239 -114 320 -49 35 29 18 33 -32 9 -79 -39 -172
-25 -257 38 -40 30 -50 30 -31 2z"/>
<path d="M4242 4625 c92 -85 280 -86 393 -2 38 29 9 26 -55 -6 -55 -27 -74
-32 -139 -31 -85 0 -132 13 -181 49 -49 36 -61 30 -18 -10z"/>
<path d="M5200 4173 c0 -4 17 -17 37 -28 86 -47 92 -133 9 -157 -55 -15 -67
-28 -28 -28 61 0 112 44 112 96 0 30 -33 85 -59 98 -38 20 -71 28 -71 19z"/>
<path d="M4595 4130 c-62 -9 -174 -43 -217 -67 -53 -27 -12 -27 88 1 82 23 90
24 98 8 11 -20 71 -77 114 -109 18 -14 36 -41 46 -70 20 -60 42 -83 77 -83 40
0 59 41 59 124 0 62 1 66 30 81 32 17 50 43 50 74 0 26 7 26 143 0 60 -11 121
-19 135 -17 l27 4 -30 13 c-82 35 -209 51 -390 50 -99 -1 -202 -5 -230 -9z
m317 -45 c-2 -11 -13 -28 -25 -38 -12 -10 -30 -25 -39 -32 -14 -12 -18 -30
-18 -83 0 -43 -5 -75 -14 -87 -14 -19 -15 -19 -35 -1 -11 10 -27 40 -36 67
-10 30 -28 58 -46 71 -67 51 -109 91 -109 104 0 16 48 21 205 20 114 -1 120
-2 117 -21z"/>
<path d="M4303 4110 c-32 -19 -63 -66 -63 -93 0 -29 40 -65 79 -72 33 -5 111
14 111 28 0 2 -26 1 -59 -1 -72 -5 -101 8 -101 48 0 27 22 55 75 94 31 23 -3
20 -42 -4z"/>
<path d="M4600 3874 c-16 -18 -4 -61 22 -77 39 -25 66 44 30 76 -23 21 -36 21
-52 1z m50 -40 c0 -23 -19 -25 -30 -4 -14 26 -4 45 16 29 8 -6 14 -17 14 -25z"/>
<path d="M4917 3849 c-44 -25 -3 -108 48 -95 43 11 31 70 -20 99 -6 3 -18 1
-28 -4z m47 -41 c8 -13 7 -21 -1 -29 -16 -16 -43 5 -43 33 0 24 28 21 44 -4z"/>
<path d="M5068 5053 c-23 -6 -23 -46 -1 -64 13 -11 17 -11 20 -1 3 6 11 12 18
12 17 0 26 35 12 49 -11 11 -19 12 -49 4z"/>
<path d="M2852 4813 c2 -5 12 -25 23 -46 16 -31 17 -43 8 -67 -12 -31 -6 -39
15 -18 26 26 1 118 -36 133 -7 3 -12 2 -10 -2z"/>
<path d="M3013 4799 c28 -39 39 -72 35 -106 -4 -34 5 -44 16 -17 17 45 -14
129 -54 142 -12 4 -11 0 3 -19z"/>
<path d="M2596 4750 c11 -31 11 -87 1 -120 l-8 -25 22 25 c17 20 20 34 16 68
-3 24 -13 51 -22 61 -16 15 -17 14 -9 -9z"/>
<path d="M3221 3917 c-15 -19 -41 -95 -41 -123 0 -43 16 -25 29 30 6 29 18 62
26 72 24 32 11 51 -14 21z"/>
<path d="M2846 3866 c47 -42 67 -75 132 -226 11 -25 11 -25 11 6 1 52 -77 193
-127 232 -64 47 -75 39 -16 -12z"/>
<path d="M3248 3154 c33 -29 52 -54 52 -68 0 -47 -43 -58 -120 -31 -49 17 -60
18 -60 6 0 -17 86 -51 128 -51 82 0 111 79 50 137 -36 33 -69 53 -90 53 -7 0
11 -21 40 -46z"/>
<path d="M3343 2914 c-79 -39 -150 -129 -194 -244 -29 -75 -3 -60 42 25 111
212 257 268 340 131 23 -38 27 -10 4 34 -35 67 -118 90 -192 54z"/>
<path d="M3358 2809 c-37 -19 -87 -94 -72 -107 4 -4 9 -1 12 6 12 35 67 84
108 94 23 7 41 15 38 20 -9 14 -47 8 -86 -13z"/>
<path d="M2359 3648 c-21 -45 -24 -65 -24 -167 0 -90 5 -125 18 -155 23 -48
30 -43 15 10 -18 60 -14 241 7 303 23 69 14 74 -16 9z"/>
<path d="M2510 2883 c0 -17 66 -72 110 -92 42 -19 112 -29 97 -15 -4 4 -33 16
-64 26 -32 11 -77 35 -100 55 -24 19 -43 30 -43 26z"/>
<path d="M3436 3478 c-9 -33 -8 -35 13 -41 25 -6 60 18 57 40 -2 11 -14 18
-33 20 -25 3 -32 0 -37 -19z"/>
<path d="M2832 3371 c-8 -5 -12 -19 -10 -31 5 -35 56 -38 64 -4 4 14 3 28 0
31 -11 11 -40 13 -54 4z"/>
<path d="M4601 7351 c-62 -253 -65 -317 -18 -386 69 -101 230 -140 331 -81 84
49 107 96 171 351 25 99 48 188 51 197 4 13 -3 19 -28 26 -18 5 -36 6 -40 3
-3 -3 -29 -95 -57 -204 -54 -214 -77 -269 -131 -305 -71 -48 -197 -13 -234 65
-25 53 -20 104 36 325 28 114 49 210 46 213 -3 3 -21 8 -39 11 l-34 5 -54
-220z"/>
<path d="M3041 7505 c-19 -6 -36 -16 -38 -21 -6 -21 -43 -291 -43 -316 0 -16
-3 -28 -7 -28 -4 0 -63 55 -130 122 l-122 122 -38 -10 c-21 -5 -38 -14 -38
-19 0 -6 70 -78 155 -159 l155 -149 41 -119 c22 -65 43 -120 46 -123 8 -8 68
16 68 27 0 5 -18 61 -39 123 l-40 114 35 212 c19 117 34 217 32 224 -2 9 -11
9 -37 0z"/>
<path d="M1700 6796 l-23 -25 98 -108 c54 -59 127 -138 161 -174 35 -37 64
-70 64 -73 0 -4 -10 -4 -22 -1 -13 3 -147 18 -298 35 -151 17 -285 33 -297 35
-13 3 -23 2 -23 -2 0 -7 148 -170 390 -429 l56 -61 29 24 28 25 -65 66 c-35
37 -110 117 -166 179 -99 108 -102 112 -70 107 71 -10 477 -55 548 -61 l75 -5
-41 43 c-22 24 -123 134 -225 244 -101 110 -186 201 -189 203 -4 1 -17 -9 -30
-22z"/>
<path d="M6480 6150 c-134 -109 -246 -203 -248 -209 -2 -5 38 -62 88 -125 l91
-116 24 18 c14 9 25 21 25 26 0 4 -29 46 -65 91 -36 46 -65 85 -65 88 0 2 38
34 85 71 97 77 88 79 162 -19 26 -36 50 -64 53 -64 3 0 16 9 29 19 l23 20 -62
81 c-34 44 -61 81 -59 83 2 1 39 31 82 65 89 72 80 74 159 -30 29 -38 58 -69
64 -69 6 0 19 9 28 19 17 19 16 22 -23 73 -108 142 -133 173 -139 175 -4 1
-117 -88 -252 -197z"/>
<path d="M971 5947 c-83 -134 -87 -143 -68 -150 8 -3 131 -80 272 -172 142
-91 261 -162 266 -158 4 4 41 62 83 128 76 120 76 120 55 138 -12 9 -26 17
-33 17 -6 0 -36 -41 -66 -90 -30 -49 -59 -90 -63 -90 -7 0 -171 102 -186 116
-2 2 20 40 49 86 l52 82 -22 18 c-12 10 -26 18 -30 18 -4 0 -29 -36 -56 -80
-27 -44 -53 -80 -57 -80 -5 0 -47 25 -93 55 -57 37 -83 59 -78 68 4 6 30 48
57 91 l49 79 -23 18 c-13 10 -27 19 -30 19 -4 0 -39 -51 -78 -113z"/>
<path d="M7058 5639 c-46 -63 -104 -143 -129 -178 -41 -59 -51 -67 -151 -116
-59 -29 -112 -55 -118 -57 -8 -2 -6 -15 5 -41 9 -21 19 -36 23 -33 4 2 57 27
117 56 l110 52 125 -6 c69 -4 169 -9 224 -13 l98 -6 -20 39 -20 39 -175 10
-175 10 105 139 c108 144 113 155 80 200 -14 18 -20 12 -99 -95z"/>
<path d="M740 5308 c-50 -14 -87 -43 -115 -92 -34 -57 -70 -166 -59 -175 9 -8
66 -30 234 -89 111 -40 331 -119 351 -127 15 -6 39 29 39 58 0 7 -44 28 -97
46 -142 49 -135 44 -118 92 32 89 9 189 -54 242 -26 22 -120 59 -140 56 -3 0
-22 -5 -41 -11z m121 -101 c42 -28 64 -82 55 -139 -11 -72 -10 -72 -136 -27
-63 22 -119 44 -124 49 -14 14 22 87 57 116 38 32 101 33 148 1z"/>
<path d="M7380 4840 c-41 -10 -178 -39 -303 -66 -142 -29 -226 -51 -224 -58 2
-6 17 -73 32 -148 l28 -138 29 0 c16 0 31 6 34 13 3 8 -4 55 -16 105 -11 51
-20 98 -20 105 0 8 33 19 93 31 50 10 99 20 109 22 16 5 22 -14 53 -163 6 -30
9 -32 33 -27 15 4 30 8 33 10 3 2 -3 43 -12 91 -10 48 -18 93 -19 99 0 6 42
19 93 29 50 10 97 20 103 22 7 2 18 -30 28 -84 24 -121 24 -123 49 -123 45 0
47 9 21 135 -34 169 -32 165 -52 164 -9 -1 -51 -9 -92 -19z"/>
<path d="M620 4494 c-96 -35 -175 -117 -202 -208 -15 -53 -15 -159 0 -212 52
-178 259 -279 439 -213 80 30 162 112 193 194 61 164 -19 357 -178 428 -63 28
-190 33 -252 11z m224 -88 c47 -19 104 -73 127 -118 96 -188 -75 -402 -285
-358 -70 14 -138 59 -173 112 -25 39 -28 51 -28 134 0 82 3 94 27 131 71 107
212 149 332 99z"/>
<path d="M6944 4108 c-4 -6 -7 -44 -7 -83 0 -57 5 -81 24 -116 45 -81 145
-112 228 -69 21 10 69 53 105 94 77 85 117 106 167 86 41 -17 63 -63 62 -127
l-1 -53 32 0 c32 0 34 2 39 43 18 129 -69 234 -185 224 -56 -5 -105 -39 -172
-117 -73 -87 -139 -106 -193 -57 -41 37 -49 90 -27 170 4 14 -1 17 -30 17 -19
0 -38 -5 -42 -12z"/>
<path d="M844 3271 c-60 -37 -67 -108 -29 -293 32 -154 32 -182 0 -214 -32
-32 -58 -26 -107 27 -45 49 -78 133 -85 216 -7 76 0 103 32 135 23 23 24 28
14 59 -17 51 -23 53 -57 19 -72 -71 -69 -223 7 -385 68 -148 180 -208 251
-137 45 46 47 85 11 236 -47 199 -49 219 -18 250 34 34 59 33 101 -5 68 -59
98 -199 55 -253 -21 -26 -21 -53 0 -85 8 -13 12 -13 26 -1 68 56 65 198 -7
332 -53 101 -130 140 -194 99z"/>
<path d="M6932 2844 c-29 -14 -63 -40 -76 -58 -31 -41 -176 -284 -176 -293 1
-9 382 -300 404 -309 10 -4 36 30 90 122 92 154 118 220 119 299 2 191 -195
322 -361 239z m177 -79 c56 -28 95 -68 115 -117 20 -47 20 -75 0 -135 -16 -49
-108 -218 -124 -228 -5 -3 -83 49 -175 116 -118 86 -164 126 -160 137 13 35
115 199 133 215 31 28 93 47 131 41 19 -3 55 -16 80 -29z"/>
<path d="M1058 2505 l-218 -145 52 -87 c56 -97 225 -350 237 -358 5 -2 16 3
24 13 15 17 12 24 -44 102 -33 47 -88 129 -121 183 -69 112 -72 96 34 171 l67
46 14 -22 c42 -69 153 -238 174 -266 24 -32 26 -32 44 -16 18 16 17 19 -35 93
-29 42 -76 113 -104 158 l-52 82 72 51 72 50 41 -66 c22 -37 71 -111 109 -166
68 -97 70 -99 88 -80 19 19 18 20 -40 101 -32 45 -87 131 -123 191 -35 60 -66
109 -69 109 -3 1 -103 -64 -222 -144z"/>
<path d="M6489 2205 c-22 -12 -228 -231 -263 -280 -6 -8 37 -67 145 -196 85
-101 161 -193 171 -204 16 -20 16 -20 42 4 14 14 26 28 26 32 0 5 -31 44 -70
88 -38 43 -70 82 -70 86 0 14 93 109 133 138 39 26 44 27 171 27 l131 0 23 33
22 32 -121 9 c-103 8 -126 6 -155 -7 -30 -15 -50 -8 -24 8 5 3 17 30 25 60 31
104 -19 185 -113 185 -26 -1 -59 -7 -73 -15z m116 -81 c31 -33 33 -80 6 -132
-19 -37 -168 -212 -180 -212 -6 0 -83 85 -119 132 -12 15 -4 28 69 110 45 51
94 101 108 110 39 27 87 23 116 -8z"/>
<path d="M1680 1948 c-47 -22 -161 -71 -255 -109 -105 -43 -169 -74 -167 -82
2 -6 12 -21 22 -31 19 -19 20 -19 105 14 l86 33 89 -89 89 -89 -28 -97 -28
-97 28 -27 c21 -20 30 -24 33 -13 3 8 26 85 51 172 25 87 64 210 87 274 l41
115 -34 33 -34 33 -85 -40z m29 -178 l-42 -122 -68 68 c-38 38 -69 72 -69 77
0 5 19 16 43 25 23 9 71 31 107 48 36 17 66 30 68 29 1 -1 -16 -57 -39 -125z"/>
<path d="M1990 1416 l-150 -225 29 -20 c16 -12 31 -21 34 -21 2 0 31 43 63 95
32 52 61 95 64 95 19 -1 147 -112 162 -141 10 -21 26 -89 35 -156 15 -115 17
-120 46 -136 16 -10 32 -16 34 -13 10 9 -26 256 -42 285 l-15 31 25 -10 c36
-14 95 -12 125 3 40 20 70 74 70 126 0 53 -23 97 -72 135 -43 34 -249 176
-254 176 -2 0 -71 -101 -154 -224z m262 87 c149 -101 178 -144 144 -211 -39
-75 -99 -69 -236 23 -55 37 -100 69 -100 72 0 5 103 172 107 173 1 0 39 -25
85 -57z"/>
<path d="M5864 1618 c-16 -12 -33 -25 -37 -28 -4 -4 3 -72 17 -151 14 -79 34
-209 44 -288 10 -80 23 -146 28 -148 6 -2 21 5 34 15 23 18 23 19 11 116 -7
54 -11 99 -9 100 2 2 47 35 100 74 l98 72 72 -45 c40 -25 80 -45 88 -45 9 0
26 10 38 23 l22 23 -68 38 c-54 32 -240 152 -383 249 -25 17 -27 16 -55 -5z
m136 -137 l102 -69 -76 -57 c-41 -31 -79 -54 -84 -51 -5 3 -13 35 -17 70 -3
35 -12 89 -19 120 -8 31 -12 56 -11 56 1 0 48 -31 105 -69z"/>
<path d="M5353 1309 c-117 -45 -206 -165 -206 -279 -1 -168 119 -294 263 -277
113 13 229 86 272 170 11 22 23 67 25 99 5 52 4 58 -13 58 -52 -1 -59 -9 -60
-65 -1 -105 -95 -193 -216 -202 -87 -6 -131 20 -173 101 -25 50 -30 71 -30
132 0 64 3 77 30 115 69 97 201 138 278 85 47 -32 51 -32 71 -1 21 32 15 42
-38 66 -54 24 -137 24 -203 -2z"/>
<path d="M2747 1216 c-68 -18 -116 -62 -157 -140 -29 -57 -34 -77 -34 -134 1
-118 52 -190 177 -247 113 -52 218 -43 291 25 34 32 39 42 30 56 -24 39 -40
39 -76 1 -72 -75 -169 -77 -275 -6 -87 60 -105 167 -49 284 56 112 169 147
287 88 61 -31 94 -74 104 -133 5 -32 11 -40 28 -40 44 0 51 14 37 64 -25 89
-112 160 -228 185 -64 13 -74 13 -135 -3z"/>
<path d="M3280 811 l-56 -270 34 -6 c19 -3 35 -5 37 -3 1 2 13 59 25 127 l23
123 46 -6 c25 -4 100 -15 166 -25 l120 -18 -1 -29 c0 -16 -4 -75 -8 -130 l-8
-102 36 -4 c31 -3 36 -1 36 17 0 11 9 133 20 270 11 138 20 253 20 258 0 4
-13 7 -29 7 -34 0 -37 -7 -47 -139 l-7 -93 -56 6 c-136 15 -263 40 -268 53 -3
7 4 59 14 115 21 108 19 118 -22 118 -18 0 -25 -24 -75 -269z"/>
<path d="M4405 1033 c-29 -4 -31 -7 -54 -101 -13 -53 -49 -182 -81 -285 l-57
-188 35 3 c35 3 36 4 65 93 16 50 31 92 33 94 4 4 185 30 216 31 11 0 33 -28
64 -80 43 -75 48 -80 79 -80 19 0 36 3 38 8 3 4 -26 59 -64 122 -38 63 -102
177 -142 252 -46 88 -77 137 -87 136 -8 -1 -28 -3 -45 -5z m41 -95 c3 -12 28
-62 55 -111 27 -50 48 -91 46 -93 -4 -5 -178 -26 -182 -22 -2 2 10 48 26 102
16 54 29 109 29 122 0 30 16 31 26 2z"/>
</g>
</svg>
